<?xml version="1.0" standalone="no"?><!DOCTYPE svg PUBLIC "-//W3C//DTD SVG 1.1//EN" "http://www.w3.org/Graphics/SVG/1.1/DTD/svg11.dtd"><svg t="1501737482343" class="icon" style="" viewBox="0 0 1024 1024" version="1.1" xmlns="http://www.w3.org/2000/svg" p-id="7203" xmlns:xlink="http://www.w3.org/1999/xlink" width="200" height="200"><defs><style type="text/css"></style></defs><path d="M712.564364 658.618182H578.373818v-73.821091c134.144-30.114909 234.775273-147.642182 234.775273-288.349091C813.149091 133.026909 677.748364 0 511.301818 0 344.901818 0 209.454545 133.026909 209.454545 296.448c0 140.660364 100.631273 258.234182 234.775273 288.349091v73.821091H310.085818c-37.096727 0-67.072 29.463273-67.072 65.861818s29.975273 65.861818 67.072 65.861818h134.144v131.723637c0 36.398545 29.975273 65.861818 67.072 65.861818s67.072-29.416727 67.072-65.861818v-131.723637h134.144c37.096727 0 67.072-29.463273 67.072-65.861818a66.327273 66.327273 0 0 0-67.025454-65.861818zM511.301818 461.032727c-92.485818 0-167.703273-73.821091-167.703273-164.584727 0-90.810182 75.217455-164.724364 167.703273-164.724364s167.703273 73.914182 167.703273 164.724364c0 90.763636-75.170909 164.584727-167.703273 164.584727z" fill="#FF57B8" p-id="7204"></path></svg>