<?xml version="1.0" standalone="no"?><!DOCTYPE svg PUBLIC "-//W3C//DTD SVG 1.1//EN" "http://www.w3.org/Graphics/SVG/1.1/DTD/svg11.dtd"><svg t="1501740724942" class="icon" style="" viewBox="0 0 1024 1024" version="1.1" xmlns="http://www.w3.org/2000/svg" p-id="19943" xmlns:xlink="http://www.w3.org/1999/xlink" width="200" height="200"><defs><style type="text/css"></style></defs><path d="M384 576H320V512h64v64z m0-192H320v64h64V384z m0-128H320v64h64V256z m0-128H320v64h64V128z m512-64v768c0 35.2-28.8 64-64 64H512v128l-96-96L320 1024v-128H192c-35.2 0-64-28.8-64-64V64c0-35.2 28.8-64 64-64h640c35.2 0 64 28.8 64 64z m-64 640H192v128h128v-64h192v64h320v-128z m0-640H256v576h576V64z" fill="" p-id="19944"></path></svg>