<?xml version="1.0" standalone="no"?><!DOCTYPE svg PUBLIC "-//W3C//DTD SVG 1.1//EN" "http://www.w3.org/Graphics/SVG/1.1/DTD/svg11.dtd"><svg t="1501737066323" class="icon" style="" viewBox="0 0 1024 1024" version="1.1" xmlns="http://www.w3.org/2000/svg" p-id="2095" xmlns:xlink="http://www.w3.org/1999/xlink" width="200" height="200"><defs><style type="text/css"></style></defs><path d="M284.503985 947.047985C233.143169 882.548863 260.798798 901.079265 179.991987 872.703992 202.988229 850.745954 203.794861 823.518958 325.686272 805.467054 447.521044 787.470954 434.776822 723.298808 438.713371 725.335577 437.977038 701.033865 435.626437 666.827321 435.626437 666.827321 435.626437 666.827321 372.131887 639.930823 353.412039 586.695842 314.216473 570.931816 319.399123 560.803777 315.575857 540.436097 315.575857 540.436097 303.681249 457.821435 330.189233 459.551293 330.189233 459.551293 347.408094 459.551293 343.18834 440.550759 341.800636 408.966904 341.828957 347.696455 343.924673 326.687053 346.02039 305.593948 361.624983 248.676045 405.861597 240.249964 450.126531 231.823883 432.369581 236.092726 447.096238 233.916453 461.851216 231.823883 457.631463 223.397801 485.017381 223.397801L541.856615 211.763112C569.242534 211.763112 586.772922 256.460406 601.499578 258.608778 616.254558 260.701347 619.766297 252.163662 649.955946 257.799651 694.164238 266.225732 688.01869 326.408045 690.114408 347.50115 692.238447 368.566355 696.118354 425.819068 691.898597 444.763802 687.678845 463.708535 700.819554 461.615965 700.819554 461.615965 732.425228 461.615965 722.513052 542.528669 722.513052 542.528669 717.670248 563.928684 704.444576 566.49557 675.019583 585.105493 656.356377 638.340473 596.628451 677.541282 596.628451 677.541282 596.628451 677.541282 596.345246 721.708458 596.118684 731.278479 596.968296 735.073006 589.350085 790.009942 693.229662 805.467058 815.121076 823.49106 823.564386 855.29795 846.503985 877.255987 797.415985 917.159985 732.935987 933.087986 681.807987 974.735987L353.412034 982.471987 284.503985 947.047985Z" p-id="2096"></path><path d="M47.81 512 47.81 512C47.81 768.365056 255.634944 976.190001 512 976.190001 768.365056 976.190001 976.190001 768.365056 976.190001 512 976.190001 255.634944 768.365056 47.81 512 47.81 255.634944 47.81 47.81 255.634944 47.81 512L47.81 512ZM6.85 512 6.85 512C6.85 233.013359 233.013359 6.85 512 6.85 790.986641 6.85 1017.150001 233.013359 1017.150001 512 1017.150001 790.986641 790.986641 1017.150001 512 1017.150001 233.013359 1017.150001 6.85 790.986641 6.85 512L6.85 512Z" p-id="2097"></path></svg>